# xmcd CD database file
#
# Track frame offsets:
#	150
#	15937
#	28821
#	44796
#	54958
#	71758
#	85482
#	99169
#	111507
#	128157
#	140081
#	153431
#
# Disc length: 2186 seconds
#
# Revision: 0
# Processed by: cddbd v1.5.1PL0 Copyright (c) Steve Scherf et al.
# Submitted via: Feurio! 1.61 - http://www.feurio.com
#
DISCID=a508880c
DTITLE=The Tennessee Gospel Society - Gospel Christmas - CD 1
DYEAR=1900
DGENRE=
TTITLE0=Glory To That Newborn King
TTITLE1=Go Tell It On The Mountain
TTITLE2=Sweet Little Jesus Boy
TTITLE3=He Is King Of Kings
TTITLE4=Wasn't That A Mighty Day
TTITLE5=Jesus Was Born To Mary
TTITLE6=Swing Low, Sweet Chariot
TTITLE7=Rise Up Shepherd An' Foller
TTITLE8=This Little Light Of Mine (Let It Shine)
TTITLE9=Good News
TTITLE10=Morning Stars
TTITLE11=Joy To The World
EXTD=
EXTT0=
EXTT1=
EXTT2=
EXTT3=
EXTT4=
EXTT5=
EXTT6=
EXTT7=
EXTT8=
EXTT9=
EXTT10=
EXTT11=
PLAYORDER=
